<svg width="20" height="20" viewBox="0 0 20 20" fill="none" xmlns="http://www.w3.org/2000/svg">
<path d="M2.29243 7.65553C2.61993 7.40365 3.08925 7.46416 3.34223 7.7903L3.34478 7.7935C3.34816 7.79772 3.35472 7.80581 3.36448 7.81748C3.38399 7.84082 3.41624 7.87837 3.46135 7.92765C3.55162 8.02627 3.69298 8.17141 3.88633 8.34333C4.27335 8.68743 4.86585 9.13627 5.67161 9.53504C6.72929 10.0585 8.16282 10.5 9.99966 10.5C11.8365 10.5 13.27 10.0585 14.3277 9.53504C15.1335 9.13627 15.726 8.68743 16.113 8.34333C16.3063 8.17141 16.4477 8.02627 16.538 7.92765C16.5831 7.87837 16.6153 7.84082 16.6349 7.81748C16.6446 7.80581 16.6512 7.79772 16.6545 7.7935L16.6568 7.79069C16.9098 7.46453 17.3794 7.40365 17.7069 7.65553C18.0352 7.90805 18.0967 8.37893 17.8442 8.70727L17.8429 8.70892L17.8413 8.71097L17.8372 8.71627L17.8251 8.73151C17.8153 8.74369 17.8021 8.75988 17.7855 8.77974C17.7523 8.81945 17.7053 8.8739 17.6444 8.94044C17.5227 9.07345 17.3449 9.2552 17.1097 9.46432C16.758 9.777 16.2764 10.1523 15.6607 10.5172L16.8819 12.909C17.0703 13.2779 16.9239 13.7297 16.555 13.918C16.1861 14.1064 15.7343 13.96 15.546 13.5911L14.317 11.1841C13.3369 11.5842 12.1493 11.8947 10.7497 11.9779V14.25C10.7497 14.6643 10.4139 15 9.99966 15C9.58545 15 9.24966 14.6643 9.24966 14.25V11.9779C7.85001 11.8947 6.66248 11.5842 5.68229 11.1841L4.45335 13.5911C4.265 13.96 3.81324 14.1064 3.44433 13.918C3.07542 13.7297 2.92905 13.2779 3.11741 12.909L4.33861 10.5172C3.72289 10.1523 3.24133 9.777 2.88965 9.46432C2.65445 9.2552 2.47664 9.07345 2.35489 8.94044C2.29398 8.8739 2.24701 8.81945 2.2138 8.77974C2.19719 8.75988 2.18402 8.74369 2.17425 8.73151L2.16216 8.71627L2.15802 8.71097L2.15643 8.70892L2.15575 8.70804C1.90323 8.37971 1.96409 7.90805 2.29243 7.65553Z" fill="#1A1926"/>
</svg>
