<svg width="18" height="18" viewBox="0 0 18 18" fill="none" xmlns="http://www.w3.org/2000/svg">
<path opacity="0.25" d="M17.1225 11.0858C16.9517 10.8218 16.7088 10.5578 16.3941 10.3906C16.1423 10.2674 15.9804 10.065 15.8365 9.82739C15.3778 9.07059 15.6476 8.07619 16.4121 7.62739C17.3114 7.12579 17.5992 6.0082 17.0776 5.137L16.475 4.09859C15.9624 3.22739 14.8383 2.9194 13.9479 3.4298C13.1565 3.8522 12.1403 3.5706 11.6816 2.8226C11.5377 2.5762 11.4568 2.3122 11.4748 2.0482C11.5018 1.705 11.3938 1.3794 11.232 1.1154C10.8992 0.569795 10.2967 0.200195 9.63117 0.200195H8.36313C7.70662 0.217795 7.10408 0.569795 6.77133 1.1154C6.60046 1.3794 6.50153 1.705 6.51952 2.0482C6.5375 2.3122 6.45657 2.5762 6.31267 2.8226C5.85402 3.5706 4.83778 3.8522 4.05537 3.4298C3.15605 2.9194 2.04089 3.22739 1.51928 4.09859L0.916739 5.137C0.404125 6.0082 0.691908 7.12579 1.58224 7.62739C2.34666 8.07619 2.61646 9.07059 2.1668 9.82739C2.01391 10.065 1.85203 10.2674 1.60022 10.3906C1.29445 10.5578 1.02466 10.8218 0.880766 11.0858C0.548016 11.6314 0.566003 12.3178 0.898752 12.8898L1.51928 13.9458C1.85203 14.509 2.47257 14.861 3.12008 14.861C3.42585 14.861 3.78558 14.773 4.07336 14.597C4.29819 14.4474 4.56799 14.3946 4.86476 14.3946C5.75509 14.3946 6.50153 15.125 6.51952 15.9962C6.51952 17.0082 7.34689 17.8002 8.39011 17.8002H9.61319C10.6474 17.8002 11.4748 17.0082 11.4748 15.9962C11.5018 15.125 12.2482 14.3946 13.1385 14.3946C13.4263 14.3946 13.6961 14.4474 13.9299 14.597C14.2177 14.773 14.5685 14.861 14.8832 14.861C15.5217 14.861 16.1423 14.509 16.475 13.9458L17.1045 12.8898C17.4283 12.3002 17.4553 11.6314 17.1225 11.0858Z" fill="#E8E8E8"/>
</svg>
