<svg width="20" height="20" viewBox="0 0 20 20" fill="none" xmlns="http://www.w3.org/2000/svg">
<path d="M10 2V18" stroke="white" stroke-width="2" stroke-linecap="round" stroke-linejoin="round"/>
<path opacity="0.4" d="M10 2V18" stroke="#1A1926" stroke-width="2" stroke-linecap="round" stroke-linejoin="round"/>
<path d="M14.0002 4.82349H8.0002C7.25759 4.82349 6.5454 5.09617 6.0203 5.58156C5.49519 6.06695 5.2002 6.72528 5.2002 7.41172C5.2002 8.09816 5.49519 8.75649 6.0203 9.24188C6.5454 9.72727 7.25759 9.99996 8.0002 9.99996H12.0002C12.7428 9.99996 13.455 10.2726 13.9801 10.758C14.5052 11.2434 14.8002 11.9017 14.8002 12.5882C14.8002 13.2746 14.5052 13.933 13.9801 14.4184C13.455 14.9037 12.7428 15.1764 12.0002 15.1764H5.2002" stroke="#1A1926" stroke-width="2" stroke-linecap="round" stroke-linejoin="round"/>
</svg>
