<svg width="22" height="22" viewBox="0 0 22 22" fill="none" xmlns="http://www.w3.org/2000/svg">
<path opacity="0.5" d="M18.8147 17.7991H13.2468C12.7036 17.7991 12.2617 18.2479 12.2617 18.7997C12.2617 19.3526 12.7036 19.8004 13.2468 19.8004H18.8147C19.3579 19.8004 19.7998 19.3526 19.7998 18.7997C19.7998 18.2479 19.3579 17.7991 18.8147 17.7991Z" fill="white"/>
<path d="M9.34702 6.01736L14.6231 10.2807C14.7504 10.3827 14.7721 10.5698 14.6728 10.7001L8.41782 18.8505C8.02463 19.3539 7.44517 19.6388 6.82433 19.6493L3.40971 19.6914C3.22759 19.6934 3.06824 19.5673 3.02685 19.3865L2.2508 16.0124C2.11629 15.3923 2.2508 14.7511 2.644 14.2571L8.93002 6.06782C9.03142 5.93643 9.21871 5.9133 9.34702 6.01736Z" fill="white"/>
<path opacity="0.5" d="M16.986 7.73966L15.9688 9.00941C15.8664 9.1387 15.6822 9.15972 15.5549 9.05671C14.3184 8.05605 11.1521 5.48817 10.2736 4.77656C10.1453 4.67145 10.1277 4.48435 10.2312 4.35401L11.2122 3.13577C12.102 1.99005 13.6541 1.88494 14.9062 2.8835L16.3444 4.02922C16.9342 4.49171 17.3274 5.10136 17.462 5.74254C17.6172 6.44784 17.4516 7.14053 16.986 7.73966Z" fill="white"/>
</svg>
