<svg width="12" height="12" viewBox="0 0 12 12" fill="none" xmlns="http://www.w3.org/2000/svg">
<path fill-rule="evenodd" clip-rule="evenodd" d="M11.2559 1.80535C11.5488 1.51246 11.5488 1.03759 11.2559 0.744694C10.963 0.451801 10.4882 0.451801 10.1953 0.744694L6.00025 4.93971L1.80523 0.744694C1.51234 0.451801 1.03747 0.451801 0.744572 0.744694C0.451679 1.03759 0.451679 1.51246 0.744572 1.80535L4.93959 6.00037L0.744572 10.1954C0.451679 10.4883 0.451679 10.9632 0.744572 11.256C1.03747 11.5489 1.51234 11.5489 1.80523 11.256L6.00025 7.06103L10.1953 11.256C10.4882 11.5489 10.963 11.5489 11.2559 11.256C11.5488 10.9632 11.5488 10.4883 11.2559 10.1954L7.06091 6.00037L11.2559 1.80535Z" fill="#1A1926"/>
</svg>
